<svg xmlns="http://www.w3.org/2000/svg" width="412.557" height="452.879" viewBox="0 0 412.557 452.879">
  <g id="iconfinder_Asset_6_4419160" transform="translate(-0.054)">
    <g id="Icon" transform="translate(0.055)">
      <path id="Path_339" data-name="Path 339" d="M205.818,0C91.608.571-.514,93.619.058,207.828s93.619,206.331,207.828,205.76c0,0,0,39.291,0,39.291,113.173-1.692,204.726-133.288,204.726-246.085C412.612,92.585,320.027,0,205.818,0ZM188.71,208.674a37.6,37.6,0,0,1-37.6,37.6v-18.8h-37.6v-56.4h75.2Zm112.8,0a37.6,37.6,0,0,1-37.6,37.6v-18.8h-37.6v-56.4h75.2Z" transform="translate(-0.055)" fill="#394866"/>
    </g>
  </g>
</svg>
