<?xml version="1.0" ?><!DOCTYPE svg  PUBLIC '-//W3C//DTD SVG 1.1//EN'  'http://www.w3.org/Graphics/SVG/1.1/DTD/svg11.dtd'><svg height="512px" style="enable-background:new 0 0 512 512;" version="1.1" viewBox="0 0 512 512" width="512px" xml:space="preserve" xmlns="http://www.w3.org/2000/svg" xmlns:xlink="http://www.w3.org/1999/xlink"><g id="_x32_20_x2C__ppc_x2C__Click_x2C__pay_x2C__payment_x2C__web"><g><path d="M350.551,413.827c-1.215-1.212-2.917-1.963-4.767-1.963    c-1.878,0-3.552,0.751-4.766,1.963c-1.242,1.243-1.993,2.918-1.993,4.794c0,1.85,0.751,3.554,1.965,4.767    c1.242,1.212,2.916,1.963,4.794,1.963c1.85,0,3.552-0.751,4.767-1.963c1.211-1.213,1.961-2.917,1.961-4.767    C352.512,416.745,351.762,415.07,350.551,413.827 M345.784,404.76c3.812,0,7.278,1.56,9.792,4.044    c2.48,2.512,4.043,5.977,4.043,9.817c0,3.813-1.563,7.279-4.043,9.792c-2.514,2.482-5.98,4.043-9.792,4.043    s-7.278-1.561-9.791-4.043c-2.513-2.543-4.071-6.009-4.071-9.792c0-3.811,1.559-7.276,4.071-9.789S341.973,404.76,345.784,404.76z     M250.74,54.795c9.703,0,18.484,3.928,24.864,10.281c6.355,6.382,10.283,15.162,10.283,24.865c0,5.805-1.387,11.263-3.899,16.115    c-2.281,4.418-5.485,8.316-9.384,11.407v14.612c6.959-3.609,12.88-8.895,17.298-15.306c5.226-7.624,8.289-16.866,8.289-26.829    c0-13.082-5.316-24.953-13.894-33.529c-8.577-8.606-20.446-13.92-33.558-13.92s-24.98,5.313-33.558,13.92    c-8.577,8.576-13.891,20.447-13.891,33.529c0,9.963,3.061,19.205,8.29,26.829c4.418,6.411,10.339,11.696,17.298,15.306v-14.612    c-3.899-3.091-7.103-6.989-9.388-11.437c-2.509-4.823-3.927-10.281-3.927-16.086c0-9.703,3.958-18.483,10.311-24.865    C232.228,58.723,241.036,54.795,250.74,54.795z M228.908,107.154v-0.289l0.028-0.261v-0.114l0.032-0.174v-0.087l0.028-0.202    v-0.059l0.028-0.201v-0.059l0.028-0.201v-0.029v-0.058l0.032-0.202l0,0l0.028-0.26l0.056-0.289v-0.029l0.06-0.23l0.028-0.26l0,0    l0.056-0.26v-0.029l0,0l0.06-0.23v-0.029l0.056-0.26l0.06-0.231v-0.028l0.056-0.232l0.028-0.028l0.06-0.202v-0.058l0,0    l0.056-0.202l0.032-0.058l0.056-0.26l0.056-0.173l0.032-0.087l0.084-0.261l0.032-0.145l0.056-0.115l0,0l0.028-0.115l0.06-0.115    l0,0l0.028-0.145l0.056-0.115l0.032-0.115l0.056-0.145l0,0l0.028-0.088l0.06-0.144h0.028l0.028-0.116l0.06-0.145l0,0l0.028-0.086    v-0.029l0.056-0.145l0,0l0.116-0.23l0.032-0.058l0.084-0.173l0.028-0.059l0.088-0.202l0,0l0.028-0.028l0.088-0.203l0,0v-0.028    l0.116-0.202l0,0v-0.029l0.116-0.202v-0.028l0,0l0.116-0.231l0,0l0.116-0.23l0,0l0.144-0.202v-0.029l0.116-0.202v-0.028l0,0    l0.116-0.202h0.028l0.116-0.202l0.028-0.029l0,0l0.088-0.202l0.028-0.028l0.116-0.174l0.028-0.058l0.116-0.145l0.028-0.087    l0.144-0.202l0,0l0.116-0.144l0.032-0.087h0.028l0.028-0.058l0.06-0.059l0,0l0.056-0.086l0,0l0.028-0.059l0.06-0.057l0,0    l0.056-0.059v-0.028l0.028-0.058l0.06-0.059l0,0l0.084-0.115l0.06-0.086l0,0l0.056-0.059l0.032-0.058v-0.028l0.056-0.059l0,0    h0.028l0.032-0.058l0.056-0.058l0,0l0.319-0.404l0,0l0.056-0.058v-0.029l0.028-0.028l0.028-0.059l0.06-0.028l0.028-0.058h0.028    l0.032-0.058l0.028-0.058l0.056-0.029l0,0l0.032-0.059l0.028-0.028l0.056-0.087l0.06-0.028l0,0l0.028-0.028l0.028-0.059    l0.028-0.029l0.032-0.028l0.028-0.028l0.028-0.029l0.028-0.029c0.203-0.26,0.463-0.49,0.695-0.722l0.2-0.202l0.176-0.174    l0.2-0.173l0.144-0.144l0.032-0.029l0.028-0.029l0.172-0.145l0.204-0.173l0.116-0.116l0.057-0.057h0.031l0.028-0.029l0.116-0.115    l0.056-0.029l0.028-0.029l0.176-0.145l0.144-0.115l0.056-0.058l0,0l0.06-0.028l0.056-0.059l0.087-0.057l0,0l0.056-0.029    l0.147-0.145l0.228-0.145l0.032-0.029l0.056-0.028l0.06-0.058l0.056-0.029l0.028-0.029l0.06-0.028l0.056-0.058l0.088-0.058l0,0    l0.2-0.146l0,0l0.232-0.144l0,0l0.435-0.289l0.231-0.115l0,0l0.432-0.289l0,0l0.232-0.115l0.231-0.146l0.26-0.114l0.231-0.116l0,0    l0.46-0.23v-0.029l0.26-0.086l0.231-0.115l0.232-0.116l0.259-0.116l0,0l0.232-0.086l0,0l0.26-0.115l0,0l0.231-0.087l0.26-0.087    l0.26-0.086v-0.029l0.26-0.058l0.231-0.116l0,0l0.26-0.058l0,0l0.26-0.087l0,0l0.26-0.086l0,0l0.259-0.058l0.26-0.087l0,0    l0.26-0.059l0,0l0.26-0.057l0.26-0.059h0.028l0.26-0.057l0.263-0.059l0,0l0.26-0.058l0,0l0.26-0.028h0.028l0.259-0.059l0.26-0.028    l0.288-0.028l0.26-0.059l0,0l0.291-0.028l0,0h0.26l0,0l0.288-0.029l0,0l0.26-0.028l0,0h0.288l0,0l0.291-0.029l0,0h0.26h0.028    h0.259l0,0h0.288l0,0h0.291l0,0h0.26h0.288l0.288,0.029h0.26l0.291,0.028l0.288,0.029h0.26l0.288,0.028l0.26,0.059l0.291,0.028    l0.26,0.028l0.26,0.059l0.288,0.028l0.259,0.058l0.52,0.115l0.288,0.059l0.263,0.057l0.26,0.059l0.519,0.145l0.26,0.086    l0.259,0.087l0.231,0.058l0.52,0.174l0.26,0.115l0.491,0.174l0.26,0.115l0.491,0.202l0.232,0.116l0.487,0.201l0.464,0.26    l0.231,0.116l0.231,0.114l0.231,0.146l0.229,0.115l0.231,0.145l0.231,0.145l0.231,0.115l0.231,0.145l0,0l0.2,0.145l0,0    l0.231,0.144l0.204,0.146l0.231,0.173l0.2,0.145l0.203,0.145l0.232,0.174l0.199,0.144l0.204,0.173l0.403,0.348l0.204,0.173    l0.199,0.173l0.204,0.174l0.172,0.173l0.203,0.173l0.172,0.174l0.204,0.202l0,0l0.172,0.173l0,0l0,0l0.176,0.174v0.028    l0.172,0.146l0,0v0.028h0.027l0,0l0.145,0.173l0.031,0.029l0,0l0.145,0.145l0.027,0.058l0,0l0.116,0.144l0.056,0.059l0,0    l0.116,0.145l0.06,0.029v0.028l0.116,0.115l0.056,0.087l0.088,0.115l0.056,0.087l0,0l0.116,0.116l0.06,0.086l0,0l0.084,0.115    l0.088,0.087l0,0l0.088,0.116l0.057,0.086l0,0l0.087,0.115l0.085,0.087v0.029l0.06,0.087l0.088,0.115l0,0l0.056,0.086l0.088,0.116    l0,0l0.056,0.087l0.088,0.144l0,0l0.057,0.058l0.088,0.145l0.056,0.087l0.088,0.145l0,0l0.06,0.058l0.084,0.174l0,0l0.032,0.028    l0.112,0.202l0,0l0.031,0.029l0.116,0.173v0.029l0,0l0.115,0.202l0,0l0.028,0.028l0.116,0.202l0,0v0.029l0.115,0.202l0,0l0,0    l0.145,0.23l0,0l0,0l0.115,0.231l0,0v0.028l0.116,0.202v0.029l0.112,0.23l0,0l0.088,0.203l0.027,0.028l0.116,0.231v0.029    l0.088,0.173l0.027,0.058l0,0l0.061,0.174l0.027,0.057l0,0l0.088,0.174l0.028,0.086l0,0l0.056,0.145l0.032,0.088v0.028    l0.056,0.144l0.057,0.088l0.06,0.145l0.028,0.115l0,0l0.06,0.115l0.027,0.115v0.029l0.028,0.115l0.06,0.115l0.028,0.115    l0.057,0.145l0.087,0.261l0.028,0.087l0.06,0.173l0.057,0.26l0.027,0.058l0.061,0.202v0.058l0.056,0.202l0.088,0.261l0.056,0.26    l0,0v0.029l0.06,0.23v0.029l0.057,0.23v0.029l0.028,0.26l0,0l0.06,0.26l0.056,0.23v0.029l0.032,0.289l0,0l0.027,0.23l0.028,0.029    l0.028,0.26l0.031,0.289l0.028,0.26l0.028,0.289l0.028,0.174v0.114l0.027,0.261v0.289v0.144l0.032,0.116v0.144    c1.183-1.473,2.221-3.062,3.088-4.765c1.993-3.813,3.092-8.202,3.092-12.852c0-7.74-3.12-14.758-8.201-19.84    c-5.086-5.055-12.102-8.203-19.843-8.203c-7.738,0-14.757,3.148-19.839,8.203c-5.082,5.082-8.229,12.1-8.229,19.84    c0,4.649,1.126,9.01,3.116,12.852c0.867,1.703,1.909,3.292,3.092,4.765v-0.144v-0.116L228.908,107.154z M295.967,44.715    c-11.581-11.551-27.581-18.713-45.227-18.713c-35.32,0-63.968,28.619-63.968,63.939c0,14.498,4.822,27.869,12.939,38.584    c7.363,9.732,17.47,17.299,29.167,21.572v-10.166c-9.388-4.129-17.414-10.801-23.135-19.176    c-6.033-8.75-9.556-19.379-9.556-30.814c0-15.047,6.121-28.707,15.968-38.555c9.879-9.877,23.51-15.971,38.583-15.971    c15.076,0,28.707,6.094,38.583,15.971c9.848,9.848,15.972,23.508,15.972,38.555c0,11.436-3.523,22.064-9.56,30.814    c-5.717,8.375-13.747,15.047-23.131,19.176v10.166c11.693-4.245,21.804-11.84,29.167-21.572    c8.114-10.715,12.939-24.086,12.939-38.584C314.711,72.295,307.549,56.297,295.967,44.715z M249.066,93.609l-0.203,0.028h-0.172    l-0.204,0.028l-0.172,0.029l-0.172,0.029l-0.175,0.058l-0.2,0.028l-0.175,0.029l-0.172,0.058l-0.172,0.028l-0.175,0.059    l-0.172,0.029l-0.176,0.058l-0.2,0.058l-0.176,0.058l-0.144,0.028l-0.172,0.059l-0.172,0.086l-0.175,0.059l-0.172,0.057    l-0.176,0.059l-0.172,0.058l-0.144,0.087l-0.172,0.058l-0.175,0.087l-0.172,0.058l0,0l-0.06,0.028l-0.056,0.029l-0.028,0.029    h-0.032l-0.112,0.057l-0.031,0.029l-0.028,0.029l-0.056,0.029l-0.06,0.028l-0.172,0.087l0,0l-0.144,0.057l0,0l-0.175,0.088    l-0.144,0.115l-0.144,0.086l-0.172,0.087l-0.147,0.087l-0.144,0.087l-0.144,0.114l-0.144,0.088l-0.144,0.115l-0.176,0.086    l-0.112,0.116l-0.147,0.087l-0.144,0.115l-0.548,0.462h-0.028l-0.06,0.028l-0.056,0.088l-0.116,0.086l-0.028,0.029h-0.032    l-0.056,0.058l-0.028,0.058h-0.028l-0.06,0.058l-0.056,0.058l0,0l-0.06,0.059l-0.056,0.029v0.027l-0.032,0.029l-0.056,0.058    l-0.056,0.028v0.029l-0.06,0.059l-0.056,0.058l-0.06,0.058l-0.056,0.058l0,0l-0.06,0.058l-0.056,0.029l-0.028,0.058h-0.031    l-0.028,0.058l-0.056,0.059l0,0l-0.06,0.057l-0.056,0.058l0,0l-0.06,0.058l-0.028,0.059l-0.028,0.029l-0.028,0.028l-0.088,0.115    l-0.087,0.058l-0.028,0.059l0,0l-0.463,0.577l-0.084,0.115l-0.116,0.146l-0.116,0.143l-0.088,0.146l-0.116,0.144l-0.088,0.174    l-0.084,0.145l-0.116,0.145l-0.087,0.145l-0.084,0.145l-0.087,0.173l-0.088,0.145l-0.088,0.173l-0.084,0.145l-0.088,0.174    l-0.088,0.145l-0.084,0.173l0,0l-0.06,0.145l0,0l-0.084,0.173l-0.147,0.318l0,0l-0.056,0.174l0,0l-0.087,0.172l-0.056,0.174    l-0.06,0.173l-0.056,0.146l-0.06,0.172l-0.056,0.174l-0.056,0.174l-0.06,0.173l-0.056,0.173l-0.06,0.174l-0.028,0.201l-0.06,0.174    l-0.028,0.174l-0.056,0.174l-0.028,0.172l-0.032,0.174l-0.028,0.202l-0.056,0.173l-0.032,0.174l-0.028,0.202v0.173l-0.028,0.174    l-0.028,0.202v0.173l-0.032,0.203v0.172l-0.028,0.203v0.173v0.202v0.174v0.201v7.423v0.087v21.861v17.299v0.088v164.557    c-0.028,1.241-0.691,2.426-1.818,3.09c-1.706,0.953-3.871,0.347-4.822-1.357l-3.64-6.412    c-10.195-18.165-20.909-37.254-36.505-41.99c-4.071-1.213-7.683-1.271-10.367-0.231c-1.818,0.693-3.236,1.964-4.071,3.755    c-0.926,2.021-1.186,4.765-0.579,8.201c1.446,8.145,7.539,19.437,20.563,33.645c6.064,6.613,7.106,14.412,8.202,22.527    c1.646,12.418,3.436,25.731,28.536,33.789c1.123,0.375,2.078,1.299,2.365,2.541l1.358,5.719h129.181l11.03-19.523V245.661    c0-4.072-1.674-7.769-4.331-10.426c-2.688-2.687-6.383-4.36-10.426-4.36c-4.016,0-7.654,1.617-10.312,4.216    c-2.569,2.513-4.243,5.95-4.475,9.733v0.346c0,1.964-1.59,3.553-3.552,3.553c-1.938,0-3.523-1.589-3.523-3.553v-26.627    c0-4.043-1.678-7.74-4.362-10.426c-2.657-2.686-6.384-4.332-10.427-4.332c-3.982,0-7.65,1.588-10.307,4.188    c-2.573,2.514-4.247,5.949-4.451,9.762v0.346c0,1.965-1.586,3.553-3.552,3.553c-1.961,0-3.551-1.588-3.551-3.553v-20.793    c0-4.043-1.675-7.74-4.331-10.426c-2.688-2.686-6.384-4.332-10.455-4.332c-3.986,0-7.626,1.589-10.282,4.188    c-2.598,2.513-4.275,5.948-4.475,9.761v0.347c0,1.964-1.59,3.552-3.556,3.552c-1.962,0-3.552-1.588-3.552-3.552v-88.546v-0.201    v-0.174v-0.202v-0.173l-0.027-0.203v-0.172l0,0l-0.028-0.203v-0.173l-0.028-0.202l0,0l-0.031-0.174l0,0l-0.028-0.173l-0.028-0.202    l-0.028-0.174l0,0l-0.031-0.173l0,0l-0.028-0.202l0,0l-0.027-0.174l0,0l-0.028-0.172l0,0l-0.06-0.174l-0.028-0.174v-0.028    l-0.056-0.146v-0.028l-0.061-0.173l0,0l-0.027-0.174l0,0l-0.057-0.173l0,0l-0.06-0.173l0,0l-0.056-0.174l0,0l-0.06-0.174l0,0    l-0.057-0.172l0,0l-0.06-0.146l-0.057-0.173l0,0l-0.06-0.174l0,0l-0.084-0.172l0,0l-0.06-0.174l-0.088-0.145v-0.029l-0.056-0.145    l0,0l-0.088-0.173l0,0l-0.084-0.145l-0.061-0.173l0,0l-0.087-0.145v-0.029l-0.085-0.145l0,0l-0.087-0.145l0,0l-0.088-0.173l0,0    l-0.085-0.145l0,0l-0.087-0.173l0,0l-0.088-0.145l0,0l-0.085-0.145l0,0l-0.115-0.145l0,0l-0.088-0.145v-0.029l-0.116-0.145l0,0    l-0.087-0.144l0,0l-0.085-0.146l0,0l-0.115-0.143l0,0l-0.116-0.146l0,0l-0.115-0.115v-0.028l-0.088-0.116v-0.028l-0.116-0.116l0,0    l-0.112-0.144l0,0l-0.115-0.145l0,0l-0.116-0.116l0,0l-0.116-0.144l0,0l-0.115-0.146l0,0l-0.116-0.114l0,0l-0.144-0.116v-0.029    l-0.116-0.115l0,0l-0.115-0.115l0,0l-0.116-0.146l0,0l-0.144-0.115l0,0l-0.116-0.115l0,0l-0.144-0.115l0,0l-0.116-0.115l0,0    l-0.144-0.115v-0.029l-0.144-0.087l-0.116-0.115v-0.028l-0.144-0.088l0,0l-0.147-0.115l0,0l-0.145-0.115l0,0l-0.144-0.115    l-0.144-0.087l0,0l-0.145-0.116l-0.144-0.086l0,0l-0.144-0.115l0,0l-0.147-0.088l-0.145-0.114l0,0l-0.144-0.087l-0.172-0.087l0,0    l-0.144-0.087v-0.028l-0.147-0.058v-0.029l-0.173-0.086l-0.287-0.145v-0.029l-0.176-0.058l0,0l-0.144-0.087l0,0l-0.344-0.173    l-0.147-0.058l-0.172-0.087l0,0l-0.319-0.145l-0.172-0.058l-0.172-0.059l-0.175-0.057l0,0l-0.172-0.087l-0.172-0.058l0,0    l-0.523-0.145l-0.344-0.115l0,0l-0.175-0.029l0,0l-0.172-0.059l0,0l-0.172-0.028l0,0l-0.175-0.058l0,0l-0.172-0.029h-0.028    l-0.175-0.028l-0.172-0.058l0,0l-0.172-0.029l-0.204-0.029l0,0l-0.172-0.028l0,0h-0.175v-0.028h-0.2l-0.175-0.029l0,0    l-0.172-0.029h-0.028h-0.175l0,0l-0.172-0.029h-0.028h-0.175l0,0h-0.172h-0.028l-0.175-0.027l0,0h-0.172h-0.028h-0.175l0,0h-0.2    h-0.175l-0.2,0.027h-0.175h-0.2l-0.175,0.029h-0.2l-0.175,0.029L249.066,93.609z M163.813,371.779    c-7.71-7.74-18.425-12.506-30.238-12.506c-11.782,0-22.496,4.766-30.238,12.506c-7.71,7.74-12.504,18.426-12.504,30.237    c0,11.811,4.794,22.497,12.536,30.236c7.738,7.739,18.425,12.506,30.207,12.506c11.813,0,22.527-4.767,30.238-12.506    c7.738-7.739,12.532-18.426,12.532-30.236C176.346,390.205,171.552,379.52,163.813,371.779z M135.829,416.773    c1.53-0.317,2.772-1.039,3.727-2.165c0.951-1.127,1.415-2.455,1.415-3.957c0-1.358-0.404-2.513-1.214-3.494    c-0.779-0.982-2.109-1.733-3.927-2.253V416.773z M131.41,384.457c-1.183,0.434-2.109,1.127-2.832,2.108    c-0.664,0.953-1.011,2.021-1.011,3.206c0,1.068,0.291,2.05,0.926,2.975s1.618,1.675,2.917,2.223V384.457z M131.41,416.282v-12.706    c-3.955-1.127-6.844-2.83-8.665-5.111c-1.846-2.311-2.772-5.084-2.772-8.348c0-3.32,1.039-6.093,3.12-8.346    c2.078-2.252,4.85-3.553,8.317-3.898v-2.975h4.418v2.975c3.236,0.375,5.805,1.473,7.71,3.292s3.12,4.245,3.667,7.278l-7.71,0.98    c-0.491-2.367-1.702-3.984-3.667-4.852v11.841c4.882,1.329,8.202,3.032,9.963,5.112c1.762,2.079,2.657,4.766,2.657,8.028    c0,3.668-1.126,6.759-3.352,9.241c-2.222,2.513-5.313,4.073-9.269,4.679v5.66h-4.418v-5.572c-3.467-0.434-6.296-1.734-8.49-3.871    c-2.197-2.194-3.583-5.256-4.19-9.183l7.886-0.954c0.316,1.646,0.951,3.033,1.85,4.188    C129.329,414.926,130.312,415.763,131.41,416.282z M439.874,140.192c-7.738-7.74-18.425-12.505-30.237-12.505    c-11.811,0-22.496,4.765-30.234,12.505c-7.742,7.739-12.536,18.425-12.536,30.237c0,11.812,4.794,22.497,12.536,30.236    c7.738,7.74,18.424,12.506,30.234,12.506c11.813,0,22.499-4.766,30.209-12.506c7.739-7.739,12.533-18.425,12.533-30.236    C452.379,158.617,447.585,147.932,439.874,140.192z M411.861,185.187c1.53-0.317,2.772-1.068,3.728-2.165    c0.95-1.127,1.442-2.455,1.442-3.957c0-1.357-0.404-2.514-1.215-3.494c-0.807-0.982-2.105-1.733-3.955-2.254V185.187z     M407.443,152.87c-1.184,0.434-2.109,1.126-2.801,2.108c-0.695,0.953-1.039,2.021-1.039,3.205c0,1.069,0.315,2.051,0.951,2.975    c0.635,0.924,1.59,1.646,2.889,2.225V152.87z M407.443,184.695v-12.707c-3.928-1.125-6.816-2.83-8.666-5.111    c-1.817-2.311-2.74-5.083-2.74-8.346c0-3.322,1.039-6.094,3.116-8.347c2.081-2.253,4.854-3.552,8.29-3.899v-2.975h4.418v2.975    c3.235,0.376,5.805,1.474,7.71,3.293c1.906,1.818,3.148,4.245,3.668,7.277l-7.711,0.982c-0.463-2.369-1.702-3.986-3.667-4.852    v11.84c4.882,1.328,8.202,3.033,9.964,5.112c1.789,2.079,2.656,4.765,2.656,8.028c0,3.668-1.099,6.729-3.32,9.241    c-2.253,2.513-5.313,4.072-9.3,4.679v5.66h-4.418v-5.573c-3.465-0.433-6.297-1.733-8.49-3.899    c-2.168-2.166-3.551-5.227-4.158-9.154l7.882-0.953c0.319,1.617,0.927,3.004,1.821,4.188    C405.394,183.31,406.376,184.146,407.443,184.695z M92.883,469.941c-1.962,0-3.552-1.616-3.552-3.552    c0-1.964,1.59-3.552,3.552-3.552h264.136c1.966,0,3.552,1.588,3.552,3.552c0,1.936-1.586,3.552-3.552,3.552H92.883z     M247.564,485.999c-1.962,0-3.552-1.589-3.552-3.552c0-1.965,1.59-3.554,3.552-3.554h182.782c1.962,0,3.552,1.589,3.552,3.554    c0,1.963-1.59,3.552-3.552,3.552H247.564z M449.059,485.999c-1.966,0-3.552-1.589-3.552-3.552c0-1.965,1.586-3.554,3.552-3.554    h22.844c1.965,0,3.551,1.589,3.551,3.554c0,1.963-1.586,3.552-3.551,3.552H449.059z M82.459,485.507    c-1.937,0-3.551-1.588-3.551-3.551c0-1.964,1.614-3.553,3.551-3.553h86.639c1.934,0,3.523,1.589,3.523,3.553    c0,1.963-1.59,3.551-3.523,3.551H82.459z M166.066,232.261c-1.155,0.087-2.313,0.433-3.352,1.04    c-1.906,1.068-3.148,2.83-3.695,4.794c-0.492,1.905-0.288,3.985,0.723,5.833l0.084,0.145c1.07,1.878,2.832,3.148,4.766,3.668    c1.965,0.52,4.103,0.289,5.977-0.779c1.07-0.607,1.937-1.444,2.6-2.396c0.664-0.982,1.099-2.109,1.271-3.293l0.232-0.779    c0.723-1.82,2.772-2.715,4.59-1.994c1.07,0.434,2.285,0.607,3.496,0.521c1.154-0.059,2.281-0.405,3.352-1.012    c1.877-1.098,3.148-2.859,3.667-4.794c0.492-1.906,0.316-3.985-0.695-5.834l-0.084-0.144c-1.099-1.878-2.86-3.148-4.794-3.668    c-1.909-0.521-3.987-0.318-5.836,0.664l-0.144,0.115c-1.067,0.607-1.934,1.443-2.597,2.368c-0.635,0.982-1.099,2.108-1.271,3.292    l-0.204,0.78c-0.695,1.819-2.772,2.715-4.594,2.021C168.463,232.376,167.249,232.174,166.066,232.261z M190.468,184.205    l26.051,45.139c2.049,3.553,2.485,7.654,1.502,11.32c-1.011,3.697-3.408,7.047-6.959,9.098L99.498,314.164    c-3.583,2.079-7.654,2.483-11.35,1.502c-3.695-1.012-7.047-3.408-9.097-6.961c-8.233-15.161-17.186-30.15-26.023-45.168    L190.468,184.205z M180.852,167.541l5.633,9.791L49.018,256.693c-1.909-3.234-3.815-6.498-5.692-9.762L180.852,167.541z     M44.136,218.023l111.62-64.46c3.524-1.964,7.51-2.339,11.146-1.386c3.699,1.01,7.047,3.407,9.1,6.959l0.863,1.531L39.398,240.029    l-0.923-1.646c-1.994-3.553-2.397-7.567-1.415-11.206c0.979-3.696,3.376-7.047,6.959-9.098L44.136,218.023z M375.415,389.974    H234.193v57.268h141.222V389.974z" style="fill-rule:evenodd;clip-rule:evenodd;"/></g></g><g id="Layer_1"/></svg>