<?xml version="1.0" ?><!DOCTYPE svg  PUBLIC '-//W3C//DTD SVG 1.1//EN'  'http://www.w3.org/Graphics/SVG/1.1/DTD/svg11.dtd'><svg height="512px" style="enable-background:new 0 0 512 512;" version="1.1" viewBox="0 0 512 512" width="512px" xml:space="preserve" xmlns="http://www.w3.org/2000/svg" xmlns:xlink="http://www.w3.org/1999/xlink"><g id="_x34_25_x2C_Card_x2C_finance_x2C_global_x2C_international_x2C_payment"><g><path d="M197.258,173.854h81.692c2.131,0,4.146,0.484,5.962,1.328v-4.277c-27.686-0.313-55.592-3.529-83.519-9.605    C199.928,165.453,198.549,169.643,197.258,173.854z"/><path d="M194.588,340.096c1.073,3.578,2.221,7.146,3.448,10.689c29.047-6.559,58.082-10.021,86.876-10.348v-1.672    c-1.816,0.846-3.831,1.33-5.962,1.33H194.588z"/><path d="M218.987,291.998c-3.772,0-6.84,3.068-6.84,6.84s3.068,6.84,6.84,6.84c3.781,0,6.857-3.068,6.857-6.84    S222.768,291.998,218.987,291.998z"/><path d="M240.7,291.998c-3.781,0-6.856,3.068-6.856,6.84s3.076,6.84,6.856,6.84c3.772,0,6.84-3.068,6.84-6.84    S244.472,291.998,240.7,291.998z"/><path d="M278.95,181.854H31.364c-3.422,0-6.206,2.783-6.206,6.205v137.832c0,3.422,2.784,6.205,6.206,6.205H278.95    c2.829,0,5.218-1.906,5.962-4.5V186.352C284.168,183.758,281.779,181.854,278.95,181.854z M53.062,212.135h197.812v8H53.062    V212.135z M53.062,237.656h197.812v8H53.062V237.656z M87.682,271.18H53.062v-8h34.621V271.18z M134.575,271.18H99.971v-8h34.604    V271.18z M240.7,313.678c-4.286,0-8.143-1.834-10.856-4.744c-2.714,2.91-6.571,4.744-10.857,4.744    c-8.183,0-14.84-6.658-14.84-14.84c0-8.184,6.657-14.84,14.84-14.84c4.286,0,8.143,1.832,10.857,4.742    c2.714-2.91,6.57-4.742,10.856-4.742c8.183,0,14.84,6.656,14.84,14.84C255.541,307.02,248.883,313.678,240.7,313.678z"/><path d="M234.837,420.477c16.418,20.881,34.034,33.096,50.075,34.861V348.604c-28.012,0.313-56.063,3.584-84.098,9.805    C209.682,381.75,221.624,403.672,234.837,420.477z"/><path d="M228.548,425.422c-14.117-17.953-26.449-40.619-35.624-65.186c-19.918,4.813-39.827,11.117-59.706,18.914    c30.561,39.256,74.831,65.787,124.063,73.82C247.583,446.574,237.923,437.344,228.548,425.422z"/><path d="M193.53,159.514c-21.792-5.16-43.585-12.064-65.283-20.686c-7.713,10.828-14.423,22.539-19.972,35.025h80.619    C190.334,169.02,191.886,164.238,193.53,159.514z"/><path d="M229.43,88.404c9.646-13.313,19.621-23.482,29.644-30.316c-50.068,7.65-94.977,34.326-125.878,74.098    c21.001,8.238,42.035,14.809,63.08,19.717C205.265,127.969,216.705,105.967,229.43,88.404z"/><path d="M186.568,341.23l3.85-1.135h-80.969c5.313,11.506,11.632,22.338,18.821,32.41c20.584-8.178,41.255-14.807,61.93-19.871    C188.914,348.867,187.699,345.064,186.568,341.23z"/><path d="M390.652,259.672h-97.496v66.219c0,0.877-0.092,1.732-0.244,2.564v11.979c28.443,0.254,57.044,3.578,85.579,9.926    C386.137,322.727,390.331,291.83,390.652,259.672z"/><path d="M325.151,59.191c15.752,10.301,30.116,27.373,42.095,50.463c6.584,12.693,12.201,26.742,16.793,41.805    c20.211-4.842,40.368-11.244,60.451-19.199C415.338,94.873,373.273,68.219,325.151,59.191z"/><path d="M235.909,93.098c-11.935,16.471-23.026,37.76-31.728,60.578c26.914,5.744,53.841,8.764,80.731,9.063V56.006    C265.079,58.301,247.474,77.137,235.909,93.098z"/><path d="M398.652,251.672h88.139c-0.821-42.029-14.556-80.914-37.355-112.777c-20.944,8.406-42.025,15.18-63.153,20.289    C394.063,187.436,398.33,218.938,398.652,251.672z"/><path d="M367.246,401.689c-11.988,23.107-26.365,40.189-42.133,50.486c48.141-9.021,90.223-35.686,119.383-73.088    c-20.085-7.957-40.244-14.359-60.457-19.205C379.447,374.947,373.83,388.996,367.246,401.689z"/><path d="M360.145,398.006c6.286-12.119,11.666-25.527,16.084-39.91c-27.693-6.082-55.483-9.25-83.316-9.498v106.805    C318.11,453.465,341.854,433.266,360.145,398.006z"/><path d="M360.145,113.338c-18.291-35.26-42.034-55.459-67.232-57.396v106.803c27.833-0.248,55.623-3.414,83.316-9.498    C371.811,138.865,366.431,125.457,360.145,113.338z"/><path d="M386.282,352.16c21.13,5.111,42.213,11.885,63.158,20.291c22.797-31.863,36.529-70.75,37.351-112.779h-88.139    C398.33,292.406,394.063,323.908,386.282,352.16z"/><path d="M293.156,251.672h97.496c-0.321-32.158-4.516-63.057-12.161-90.688c-28.535,6.346-57.136,9.67-85.579,9.924v14.584    c0.152,0.834,0.244,1.689,0.244,2.566V251.672z"/></g></g><g id="Layer_1"/></svg>