<?xml version="1.0" ?><svg enable-background="new 0 0 512 512" id="Layer_1" version="1.1" viewBox="0 0 512 512" xml:space="preserve" xmlns="http://www.w3.org/2000/svg" xmlns:xlink="http://www.w3.org/1999/xlink"><g><g><linearGradient gradientUnits="userSpaceOnUse" id="SVGID_1_" x1="-0.0000027" x2="512" y1="256" y2="256"><stop offset="0" style="stop-color:#A364AB"/><stop offset="1" style="stop-color:#8C3D96"/></linearGradient><circle cx="256" cy="256" fill="url(#SVGID_1_)" r="256"/><linearGradient gradientUnits="userSpaceOnUse" id="SVGID_2_" x1="42.6666641" x2="469.3333435" y1="256.0005188" y2="256.0005188"><stop offset="0" style="stop-color:#8C3D96"/><stop offset="1" style="stop-color:#A364AB"/></linearGradient><path d="M256,469.3338623c-117.6315155,0-213.3333435-95.7023926-213.3333435-213.3333435    c0-117.6314545,95.7018204-213.333313,213.3333435-213.333313c117.6356812,0,213.3333435,95.7018661,213.3333435,213.333313    C469.3333435,373.6314697,373.6356812,469.3338623,256,469.3338623z" fill="url(#SVGID_2_)"/></g><g><polygon opacity="0.3" points="304.655426,149 304.655426,202.4581299 358.114624,202.4581299   "/><path d="M294.655426,212.4581299V144H164.8847504v240h198.2299042V212.4581299H294.655426z     M190.4111481,184.9898682h77.9637299v10h-77.9637299V184.9898682z M190.4111481,212.8026733h70.9370575v10h-70.9370575    V212.8026733z M190.4111481,240.6149292h92.4997406v10h-92.4997406V240.6149292z M246.8250275,347.636261l-33.8016052-33.8037415    l7.0704041-7.0703735l26.7312012,26.7338562l61.0810699-61.0794678l7.0704041,7.0704041L246.8250275,347.636261z" opacity="0.3"/></g><g><polygon fill="#FFFFFF" points="296.655426,141 296.655426,194.4581299 350.114624,194.4581299   "/><path d="M286.655426,204.4581299V136H156.8847504v240h198.2299042V204.4581299H286.655426z     M182.4111481,176.9898682h77.9637299v10h-77.9637299V176.9898682z M182.4111481,204.8026733h70.9370728v10h-70.9370728    V204.8026733z M182.4111481,232.6149292h92.4997406v10h-92.4997406V232.6149292z M238.8250275,339.636261l-33.8016052-33.8037415    l7.0704041-7.0703735l26.7312012,26.7338562l61.0810699-61.0794678l7.0704041,7.0704041L238.8250275,339.636261z" fill="#FFFFFF"/></g></g></svg>